<svg width="167" height="50" viewBox="0 0 167 50" fill="none" xmlns="http://www.w3.org/2000/svg">
<path d="M38.0287 34.0793C45.156 34.0793 49.0854 29.8677 49.0854 23.5505C49.0854 16.7879 44.5898 13.5073 38.2725 13.5073C31.0243 13.5073 27.2178 17.8397 27.2178 24.0361C27.2178 30.7987 31.7517 34.0793 38.0287 34.0793ZM39.1632 32.175C35.7617 32.175 34.871 22.6598 34.871 19.7843C34.871 16.6247 35.9632 15.4499 37.1783 15.4499C40.5798 15.4499 41.4301 24.9671 41.4301 27.8023C41.4301 31.0022 40.3783 32.175 39.1632 32.175Z" fill="#396353"/>
<path d="M50.582 33.6743H61.9612V33.0254C60.5043 31.9735 60.1798 31.5282 60.1798 28.5721V19.5808C60.7864 18.7707 61.6368 18.0836 62.61 18.0836C63.9057 18.0836 65.0402 19.0952 65.0402 21.5657V28.5721C65.0402 31.5282 64.5526 31.9735 63.0151 33.0254V33.6743H74.5151V33.0254C72.8547 31.9735 72.4497 31.5282 72.4497 28.5721V19.8246C72.4497 14.3577 68.4014 13.5074 66.4971 13.5074C63.2166 13.5074 60.9496 16.0988 60.0186 17.598V13.4268C56.859 14.3577 53.7417 14.924 50.582 15.0872V15.734C52.2022 17.07 52.6475 17.5154 52.6475 21.2412V28.5721C52.6475 31.5282 52.2425 31.9735 50.582 33.0254V33.6743Z" fill="#396353"/>
<path d="M92.6122 34.0797C95.8927 34.0797 97.6741 31.8531 98.3229 29.9085L97.4323 29.4632C97.1481 30.1524 96.7028 31.0027 96.1366 31.0027C95.7718 31.0027 95.4071 30.5977 95.4071 29.7876L95.6106 21.282C95.6912 18.1647 95.123 13.5078 87.6732 13.5078C81.7187 13.5078 78.7223 16.5042 77.6301 18.8135L82.2063 21.6064L82.7323 21.4452C83.2582 18.8941 84.5942 15.6942 86.8229 15.6942C88.1186 15.6942 88.5236 16.7884 88.4813 17.679L88.4007 21.1208C81.1927 23.2668 76.1309 24.9273 76.1309 29.2597C76.1309 31.974 78.156 34.0394 81.5172 34.0394C84.9992 34.0394 87.3891 31.7705 88.3604 29.9085H88.441C88.3201 31.8128 89.2107 34.0797 92.6122 34.0797ZM85.6884 29.5438C84.7151 29.5438 83.8647 28.9373 83.8647 27.3977C83.8647 25.4935 85.1624 24.3207 88.4007 22.6603L88.2395 28.0043C87.7941 28.774 86.7805 29.5438 85.6884 29.5438Z" fill="#396353"/>
<path d="M98.9297 33.6743H110.309V33.0254C108.852 31.9735 108.528 31.5282 108.528 28.5721V19.5808C109.134 18.7707 109.984 18.0836 110.958 18.0836C112.253 18.0836 113.388 19.0952 113.388 21.5657V28.5721C113.388 31.5282 112.9 31.9735 111.363 33.0254V33.6743H122.863V33.0254C121.202 31.9735 120.797 31.5282 120.797 28.5721V19.8246C120.797 14.3577 116.749 13.5074 114.845 13.5074C111.564 13.5074 109.297 16.0988 108.366 17.598V13.4268C105.207 14.3577 102.089 14.924 98.9297 15.0872V15.734C100.55 17.07 100.995 17.5154 100.995 21.2412V28.5721C100.995 31.5282 100.59 31.9735 98.9297 33.0254V33.6743Z" fill="#396353"/>
<path d="M124.319 33.6742H141.651L142.3 26.0209H141.651C138.939 31.4878 137.56 31.8122 135.981 31.8122H132.662L142.461 15.5324V14.0332H125.817L125.17 21.485H125.817C129.016 16.2196 129.988 15.8972 131.406 15.8972H134.443L124.319 32.2979V33.6742Z" fill="#396353"/>
<path d="M161.29 34.0793C164.57 34.0793 166.352 31.8526 167.001 29.908L166.11 29.4627C165.826 30.1519 165.381 31.0022 164.814 31.0022C164.45 31.0022 164.085 30.5972 164.085 29.7871L164.288 21.2815C164.369 18.1642 163.801 13.5073 156.351 13.5073C150.396 13.5073 147.4 16.5037 146.308 18.813L150.884 21.6059L151.41 21.4447C151.936 18.8936 153.272 15.6937 155.501 15.6937C156.796 15.6937 157.201 16.7879 157.159 17.6785L157.078 21.1203C149.87 23.2663 144.809 24.9268 144.809 29.2592C144.809 31.9735 146.834 34.039 150.195 34.039C153.677 34.039 156.067 31.77 157.038 29.908H157.119C156.998 31.8123 157.888 34.0793 161.29 34.0793ZM154.366 29.5433C153.393 29.5433 152.542 28.9368 152.542 27.3973C152.542 25.493 153.84 24.3202 157.078 22.6598L156.917 28.0038C156.472 28.7736 155.458 29.5433 154.366 29.5433Z" fill="#396353"/>
<path d="M6.81066 47.6473C6.40764 47.6473 6.02881 47.5748 5.67416 47.4297C5.3195 47.2806 5.00918 47.071 4.74722 46.801C4.48324 46.533 4.27368 46.2126 4.11851 45.8418C3.96134 45.467 3.88477 45.0519 3.88477 44.6005V44.5763C3.88477 44.1532 3.95328 43.7542 4.09433 43.3834C4.23337 43.0126 4.42682 42.6902 4.67468 42.4162C4.92656 42.1421 5.22479 41.9285 5.56937 41.7714C5.91193 41.6101 6.28875 41.5295 6.69782 41.5295C7.12703 41.5295 7.51191 41.6101 7.85044 41.7714C8.18897 41.9326 8.4731 42.1542 8.70483 42.4323C8.9406 42.7124 9.11792 43.0409 9.23681 43.4157C9.35973 43.7864 9.4222 44.1874 9.4222 44.6166C9.4222 44.6811 9.4222 44.7335 9.4222 44.7698C9.4222 44.8081 9.41817 44.8544 9.41414 44.9068H4.7714C4.7976 45.2252 4.87014 45.5073 4.98903 45.7531C5.11195 45.995 5.26509 46.2025 5.44847 46.3738C5.63587 46.541 5.84544 46.67 6.07717 46.7607C6.31294 46.8473 6.5628 46.8896 6.82678 46.8896C7.23383 46.8896 7.58445 46.8151 7.87462 46.664C8.16882 46.5088 8.43884 46.3073 8.68065 46.0594L9.22069 46.5431C8.92448 46.8776 8.58796 47.1456 8.21315 47.3491C7.83633 47.5466 7.36884 47.6473 6.81066 47.6473ZM8.54363 44.2539C8.52146 43.992 8.46504 43.7381 8.37436 43.4963C8.28771 43.2544 8.16681 43.0449 8.01165 42.8676C7.86052 42.6862 7.67311 42.5411 7.44742 42.4323C7.22577 42.3195 6.96784 42.263 6.67363 42.263C6.4157 42.263 6.17591 42.3154 5.95627 42.4162C5.73461 42.5189 5.54116 42.658 5.37592 42.8353C5.21472 43.0126 5.07971 43.2222 4.97291 43.464C4.86409 43.7058 4.7976 43.9698 4.7714 44.2539H8.54363Z" fill="#396353"/>
<path d="M10.7041 41.6509H11.6713L13.6381 46.5112L15.6209 41.6509H16.564L14.0169 47.5591H13.2431L10.7041 41.6509Z" fill="#396353"/>
<path d="M20.8282 47.6478C20.4252 47.6478 20.0464 47.5753 19.6917 47.4302C19.3371 47.2811 19.0268 47.0715 18.7648 46.8015C18.5008 46.5335 18.2913 46.2131 18.1361 45.8423C17.9789 45.4675 17.9023 45.0524 17.9023 44.601V44.5768C17.9023 44.1537 17.9709 43.7547 18.1119 43.3839C18.251 43.0131 18.4444 42.6907 18.6923 42.4167C18.9441 42.1426 19.2424 41.929 19.5869 41.7718C19.9295 41.6106 20.3063 41.53 20.7154 41.53C21.1446 41.53 21.5295 41.6106 21.868 41.7718C22.2066 41.933 22.4907 42.1547 22.7224 42.4328C22.9582 42.7129 23.1355 43.0413 23.2544 43.4161C23.3773 43.7869 23.4398 44.1879 23.4398 44.6171C23.4398 44.6816 23.4398 44.734 23.4398 44.7703C23.4398 44.8086 23.4357 44.8549 23.4317 44.9073H18.789C18.8152 45.2257 18.8877 45.5078 19.0066 45.7536C19.1295 45.9954 19.2827 46.203 19.466 46.3743C19.6534 46.5415 19.863 46.6705 20.0947 46.7612C20.3305 46.8478 20.5804 46.8901 20.8444 46.8901C21.2514 46.8901 21.602 46.8156 21.8922 46.6644C22.1864 46.5093 22.4564 46.3078 22.6982 46.0599L23.2383 46.5435C22.9421 46.878 22.6055 47.1461 22.2307 47.3496C21.8539 47.5471 21.3864 47.6478 20.8282 47.6478ZM22.5612 44.2544C22.539 43.9925 22.4826 43.7386 22.3919 43.4967C22.3053 43.2549 22.1844 43.0454 22.0292 42.868C21.8781 42.6867 21.6907 42.5416 21.465 42.4328C21.2433 42.3199 20.9854 42.2635 20.6912 42.2635C20.4333 42.2635 20.1935 42.3159 19.9738 42.4167C19.7522 42.5194 19.5587 42.6585 19.3935 42.8358C19.2323 43.0131 19.0973 43.2227 18.9905 43.4645C18.8817 43.7063 18.8152 43.9703 18.789 44.2544H22.5612Z" fill="#396353"/>
<path d="M25.2998 41.6508H26.1703V43.1822C26.2771 42.9404 26.4081 42.7187 26.5653 42.5132C26.7265 42.3097 26.9078 42.1344 27.1134 41.9893C27.3169 41.8402 27.5406 41.7273 27.7824 41.6508C28.0242 41.5762 28.2841 41.5419 28.5642 41.546V42.489H28.4917C28.1733 42.489 27.8731 42.5455 27.5889 42.6583C27.3088 42.7711 27.061 42.9444 26.8474 43.1742C26.6378 43.3998 26.4706 43.682 26.3476 44.0205C26.2288 44.355 26.1703 44.7379 26.1703 45.1731V47.5106H25.2998V41.6508Z" fill="#396353"/>
<path d="M34.6031 41.6506H35.53L33.0716 47.7039C32.8238 48.3044 32.5477 48.7296 32.2414 48.9775C31.9351 49.2293 31.5603 49.3563 31.121 49.3563C30.8792 49.3563 30.6576 49.3321 30.4601 49.2838C30.2666 49.2354 30.0732 49.1628 29.8798 49.0661L30.1699 48.3729C30.315 48.4475 30.4561 48.5019 30.5971 48.5341C30.7362 48.5704 30.8994 48.5906 31.0888 48.5906C31.3508 48.5906 31.5744 48.51 31.7578 48.3488C31.9392 48.1916 32.1165 47.9054 32.2898 47.4863L29.6299 41.6506H30.5891L32.725 46.5352L34.6031 41.6506Z" fill="#396353"/>
<path d="M39.2018 47.6153C38.9701 47.6153 38.7524 47.5831 38.5489 47.5186C38.3434 47.4602 38.1661 47.3655 38.0169 47.2365C37.8719 47.1035 37.755 46.9302 37.6703 46.7206C37.5897 46.507 37.5494 46.2511 37.5494 45.9549V42.4245H36.7354V41.6507H37.5494V39.8855H38.42V41.6507H40.2819V42.4245H38.42V45.8421C38.42 46.2088 38.5106 46.4627 38.694 46.6078C38.8754 46.7489 39.1131 46.8174 39.4033 46.8174C39.5585 46.8174 39.7015 46.8053 39.8305 46.7771C39.9635 46.7448 40.1066 46.6924 40.2577 46.6159V47.3655C40.1066 47.4461 39.9454 47.5085 39.7741 47.5509C39.6068 47.5932 39.4154 47.6153 39.2018 47.6153Z" fill="#396353"/>
<path d="M42.1504 39.2407H43.0209V42.6744C43.2184 42.358 43.4763 42.09 43.7947 41.8684C44.1111 41.6427 44.5221 41.5299 45.0279 41.5299C45.3826 41.5299 45.6969 41.5863 45.971 41.6991C46.2491 41.812 46.4828 41.9732 46.6722 42.1827C46.8657 42.3883 47.0128 42.6341 47.1155 42.9243C47.2163 43.2104 47.2687 43.5268 47.2687 43.8754V47.5106H46.3982V44.085C46.3982 43.5429 46.2571 43.1137 45.979 42.7953C45.6989 42.479 45.2979 42.3198 44.7781 42.3198C44.5302 42.3198 44.2985 42.3641 44.0849 42.4487C43.8693 42.5354 43.6819 42.6623 43.5206 42.8276C43.3635 42.9888 43.2405 43.1822 43.1499 43.4079C43.0632 43.6336 43.0209 43.8835 43.0209 44.1575V47.5106H42.1504V39.2407Z" fill="#396353"/>
<path d="M49.4824 39.4102H50.4738V40.3693H49.4824V39.4102ZM49.5388 41.6509H50.4094V47.5108H49.5388V41.6509Z" fill="#396353"/>
<path d="M52.7656 41.6504H53.6361V42.6741C53.8336 42.3577 54.0915 42.0897 54.4099 41.8681C54.7263 41.6424 55.1374 41.5295 55.6432 41.5295C55.9978 41.5295 56.3122 41.586 56.5862 41.6988C56.8643 41.8117 57.098 41.9729 57.2875 42.1824C57.4809 42.388 57.628 42.6338 57.7308 42.924C57.8315 43.2101 57.8839 43.5265 57.8839 43.8751V47.5103H57.0134V44.0847C57.0134 43.5426 56.8724 43.1134 56.5943 42.795C56.3142 42.4786 55.9132 42.3195 55.3933 42.3195C55.1454 42.3195 54.9137 42.3638 54.7001 42.4484C54.4845 42.5351 54.2971 42.662 54.1359 42.8273C53.9787 42.9885 53.8558 43.1819 53.7651 43.4076C53.6785 43.6333 53.6361 43.8832 53.6361 44.1572V47.5103H52.7656V41.6504Z" fill="#396353"/>
<path d="M62.6713 49.348C62.1816 49.348 61.7141 49.2775 61.2688 49.1385C60.8214 49.0035 60.4003 48.802 60.0033 48.534L60.4063 47.8488C60.7448 48.0906 61.0995 48.276 61.4703 48.405C61.841 48.534 62.236 48.5984 62.6551 48.5984C63.304 48.5984 63.8239 48.4211 64.2108 48.0665C64.5977 47.7158 64.7911 47.2 64.7911 46.5108V45.8257C64.5332 46.1642 64.2188 46.4544 63.8481 46.6962C63.4773 46.938 63.0219 47.0589 62.4859 47.0589C62.1312 47.0589 61.7887 46.9944 61.4622 46.8655C61.1338 46.7365 60.8416 46.5551 60.5836 46.3174C60.3257 46.0756 60.1182 45.7894 59.963 45.4549C59.8119 45.1164 59.7373 44.7375 59.7373 44.3184V44.2942C59.7373 43.865 59.8119 43.4801 59.963 43.1416C60.1182 42.799 60.3257 42.5089 60.5836 42.2711C60.8416 42.0293 61.1358 41.8479 61.4703 41.723C61.8028 41.594 62.1413 41.5295 62.4859 41.5295C62.7599 41.5295 63.0118 41.5618 63.2435 41.6263C63.4733 41.6907 63.6808 41.7774 63.8642 41.8842C64.0516 41.987 64.2209 42.1099 64.372 42.255C64.5211 42.396 64.6561 42.5451 64.775 42.7063V41.6504H65.6536V46.4866C65.6536 46.9441 65.5891 47.3451 65.4601 47.6876C65.3312 48.0302 65.1458 48.3244 64.904 48.5662C64.64 48.8282 64.3176 49.0256 63.9367 49.1546C63.5599 49.2836 63.1388 49.348 62.6713 49.348ZM62.6551 46.2851C62.9393 46.2851 63.2073 46.2408 63.4612 46.1481C63.7191 46.0514 63.9468 45.9144 64.1463 45.737C64.3498 45.5597 64.511 45.3501 64.6299 45.1083C64.7528 44.8665 64.8153 44.5985 64.8153 44.3023V44.2781C64.8153 43.9779 64.7528 43.7058 64.6299 43.464C64.511 43.2222 64.3498 43.0167 64.1463 42.8434C63.9468 42.666 63.7191 42.533 63.4612 42.4404C63.2073 42.3436 62.9393 42.2953 62.6551 42.2953C62.375 42.2953 62.1111 42.3436 61.8652 42.4404C61.6234 42.533 61.4078 42.664 61.2204 42.8353C61.037 43.0086 60.8919 43.2141 60.7851 43.456C60.6824 43.6978 60.632 43.9698 60.632 44.27V44.2942C60.632 44.5904 60.6844 44.8625 60.7932 45.1083C60.9061 45.3501 61.0532 45.5597 61.2365 45.737C61.4179 45.9103 61.6335 46.0433 61.8813 46.14C62.1272 46.2368 62.3851 46.2851 62.6551 46.2851Z" fill="#396353"/>
<path d="M74.7736 47.6315C74.4996 47.6315 74.2497 47.5952 74.024 47.5267C73.7983 47.4622 73.5928 47.3736 73.4114 47.2607C73.2281 47.1479 73.0608 47.0169 72.9117 46.8658C72.7666 46.7167 72.6377 46.5575 72.5248 46.3902V47.5106H71.6543V39.2407H72.5248V42.8276C72.6477 42.6563 72.7827 42.4931 72.9278 42.3359C73.0769 42.1747 73.2422 42.0356 73.4195 41.9167C73.6009 41.7999 73.8024 41.7052 74.024 41.6346C74.2497 41.5661 74.4996 41.5299 74.7736 41.5299C75.1162 41.5299 75.4547 41.5984 75.7892 41.7314C76.1278 41.8664 76.428 42.0659 76.692 42.3278C76.96 42.5858 77.1716 42.9041 77.3288 43.2789C77.49 43.6497 77.5706 44.0769 77.5706 44.5605V44.5847C77.5706 45.0643 77.49 45.4915 77.3288 45.8663C77.1716 46.2431 76.962 46.5635 76.7001 46.8255C76.4421 47.0834 76.1439 47.2829 75.8054 47.4219C75.4709 47.561 75.1283 47.6315 74.7736 47.6315ZM74.6124 46.8497C74.8905 46.8497 75.1565 46.7993 75.4104 46.6965C75.6623 46.5958 75.8799 46.4507 76.0633 46.2613C76.2507 46.0678 76.3978 45.832 76.5066 45.5519C76.6195 45.2739 76.6759 44.9555 76.6759 44.6008V44.5767C76.6759 44.228 76.6195 43.9137 76.5066 43.6336C76.3978 43.3555 76.2507 43.1177 76.0633 42.9243C75.8739 42.7268 75.6542 42.5757 75.4023 42.4729C75.1545 42.3661 74.8905 42.3117 74.6124 42.3117C74.3384 42.3117 74.0744 42.3661 73.8225 42.4729C73.5686 42.5817 73.3429 42.7369 73.1455 42.9404C72.946 43.1399 72.7868 43.3797 72.6699 43.6578C72.551 43.9318 72.4926 44.2341 72.4926 44.5605V44.5847C72.4926 44.9293 72.551 45.2416 72.6699 45.5197C72.7868 45.7998 72.946 46.0396 73.1455 46.2371C73.3429 46.4305 73.5686 46.5817 73.8225 46.6885C74.0744 46.7973 74.3384 46.8497 74.6124 46.8497Z" fill="#396353"/>
<path d="M81.6607 47.6316C81.306 47.6316 80.9877 47.5752 80.7096 47.4624C80.4355 47.3495 80.2018 47.1923 80.0083 46.9868C79.8189 46.7772 79.6738 46.5314 79.5731 46.2453C79.4703 45.9551 79.4199 45.6367 79.4199 45.2861V41.6509H80.2904V45.0765C80.2904 45.6206 80.4295 46.0498 80.7096 46.3662C80.9877 46.6845 81.3887 46.8417 81.9106 46.8417C82.1564 46.8417 82.3881 46.7994 82.6037 46.7128C82.8234 46.6281 83.0088 46.5032 83.1599 46.342C83.3151 46.1767 83.438 45.9793 83.5307 45.7536C83.6214 45.5279 83.6677 45.278 83.6677 45.004V41.6509H84.5302V47.5107H83.6677V46.4871C83.4682 46.8095 83.2103 47.0815 82.8939 47.3012C82.5755 47.5208 82.1645 47.6316 81.6607 47.6316Z" fill="#396353"/>
<path d="M88.776 47.6156C88.5443 47.6156 88.3267 47.5833 88.1231 47.5189C87.9176 47.4604 87.7403 47.3657 87.5912 47.2367C87.4461 47.1038 87.3292 46.9305 87.2446 46.7209C87.164 46.5073 87.1237 46.2514 87.1237 45.9552V42.4247H86.3096V41.651H87.1237V39.8857H87.9942V41.651H89.8561V42.4247H87.9942V45.8423C87.9942 46.2091 88.0849 46.463 88.2682 46.608C88.4496 46.7491 88.6874 46.8176 88.9775 46.8176C89.1327 46.8176 89.2758 46.8055 89.4047 46.7773C89.5377 46.7451 89.6808 46.6927 89.8319 46.6161V47.3657C89.6808 47.4463 89.5196 47.5088 89.3483 47.5511C89.1811 47.5934 88.9896 47.6156 88.776 47.6156Z" fill="#396353"/>
<path d="M97.4079 47.6158C97.1761 47.6158 96.9585 47.5836 96.755 47.5191C96.5494 47.4607 96.3721 47.366 96.223 47.237C96.0779 47.104 95.961 46.9307 95.8764 46.7211C95.7958 46.5075 95.7555 46.2516 95.7555 45.9554V42.425H94.9414V41.6512H95.7555V39.886H96.626V41.6512H98.4879V42.425H96.626V45.8426C96.626 46.2093 96.7167 46.4632 96.9001 46.6083C97.0814 46.7493 97.3192 46.8179 97.6094 46.8179C97.7645 46.8179 97.9076 46.8058 98.0366 46.7776C98.1696 46.7453 98.3126 46.6929 98.4638 46.6163V47.366C98.3126 47.4466 98.1514 47.509 97.9801 47.5513C97.8129 47.5937 97.6215 47.6158 97.4079 47.6158Z" fill="#396353"/>
<path d="M100.357 39.2407H101.228V42.6744C101.425 42.358 101.683 42.09 102.002 41.8684C102.318 41.6427 102.729 41.5299 103.235 41.5299C103.59 41.5299 103.904 41.5863 104.178 41.6991C104.456 41.812 104.69 41.9732 104.879 42.1827C105.073 42.3883 105.22 42.6341 105.323 42.9243C105.423 43.2104 105.476 43.5268 105.476 43.8754V47.5106H104.605V44.085C104.605 43.5429 104.464 43.1137 104.186 42.7953C103.906 42.479 103.505 42.3198 102.985 42.3198C102.737 42.3198 102.505 42.3641 102.292 42.4487C102.076 42.5354 101.889 42.6623 101.728 42.8276C101.57 42.9888 101.448 43.1822 101.357 43.4079C101.27 43.6336 101.228 43.8835 101.228 44.1575V47.5106H100.357V39.2407Z" fill="#396353"/>
<path d="M110.229 47.6473C109.826 47.6473 109.447 47.5748 109.092 47.4297C108.737 47.2806 108.427 47.071 108.165 46.801C107.901 46.533 107.692 46.2126 107.536 45.8418C107.379 45.467 107.303 45.0519 107.303 44.6005V44.5763C107.303 44.1532 107.371 43.7542 107.512 43.3834C107.651 43.0126 107.845 42.6902 108.093 42.4162C108.345 42.1421 108.643 41.9285 108.987 41.7714C109.33 41.6101 109.707 41.5295 110.116 41.5295C110.545 41.5295 110.93 41.6101 111.268 41.7714C111.607 41.9326 111.891 42.1542 112.123 42.4323C112.359 42.7124 112.536 43.0409 112.655 43.4157C112.778 43.7864 112.84 44.1874 112.84 44.6166C112.84 44.6811 112.84 44.7335 112.84 44.7698C112.84 44.8081 112.836 44.8544 112.832 44.9068H108.189C108.216 45.2252 108.288 45.5073 108.407 45.7531C108.53 45.995 108.683 46.2025 108.866 46.3738C109.054 46.541 109.263 46.67 109.495 46.7607C109.731 46.8473 109.981 46.8896 110.245 46.8896C110.652 46.8896 111.002 46.8151 111.293 46.664C111.587 46.5088 111.857 46.3073 112.099 46.0594L112.639 46.5431C112.342 46.8776 112.006 47.1456 111.631 47.3491C111.254 47.5466 110.787 47.6473 110.229 47.6473ZM111.962 44.2539C111.939 43.992 111.883 43.7381 111.792 43.4963C111.706 43.2544 111.585 43.0449 111.43 42.8676C111.278 42.6862 111.091 42.5411 110.865 42.4323C110.644 42.3195 110.386 42.263 110.092 42.263C109.834 42.263 109.594 42.3154 109.374 42.4162C109.153 42.5189 108.959 42.658 108.794 42.8353C108.633 43.0126 108.498 43.2222 108.391 43.464C108.282 43.7058 108.216 43.9698 108.189 44.2539H111.962Z" fill="#396353"/>
<path d="M121.106 47.6473C120.665 47.6473 120.26 47.5667 119.889 47.4055C119.518 47.2403 119.196 47.0186 118.922 46.7446C118.652 46.4705 118.442 46.1521 118.293 45.7854C118.142 45.4146 118.067 45.0237 118.067 44.6086V44.5844C118.067 44.1713 118.142 43.7784 118.293 43.4076C118.442 43.0368 118.652 42.7124 118.922 42.4323C119.196 42.1542 119.52 41.9326 119.897 41.7714C120.272 41.6101 120.683 41.5295 121.13 41.5295C121.566 41.5295 121.969 41.6101 122.339 41.7714C122.714 41.9326 123.041 42.1542 123.315 42.4323C123.589 42.7063 123.8 43.0267 123.951 43.3915C124.101 43.7582 124.177 44.1471 124.177 44.5602V44.5844C124.177 45.0035 124.099 45.3985 123.943 45.7693C123.786 46.136 123.573 46.4584 123.299 46.7365C123.029 47.0166 122.704 47.2403 122.323 47.4055C121.946 47.5667 121.541 47.6473 121.106 47.6473ZM121.13 46.8655C121.447 46.8655 121.737 46.807 122.001 46.6881C122.263 46.5652 122.488 46.402 122.678 46.1965C122.865 45.9929 123.012 45.7572 123.121 45.4872C123.228 45.2131 123.282 44.9209 123.282 44.6086V44.5844C123.282 44.268 123.226 43.9718 123.113 43.6978C123.004 43.4237 122.851 43.1819 122.654 42.9723C122.46 42.7628 122.229 42.5995 121.961 42.4807C121.697 42.3577 121.412 42.2953 121.106 42.2953C120.788 42.2953 120.496 42.3577 120.228 42.4807C119.964 42.5995 119.738 42.7608 119.55 42.9643C119.367 43.1698 119.222 43.4116 119.115 43.6897C119.012 43.9638 118.962 44.2539 118.962 44.5602V44.5844C118.962 44.9028 119.014 45.201 119.123 45.4791C119.236 45.7531 119.385 45.9929 119.575 46.1965C119.768 46.402 119.996 46.5652 120.26 46.6881C120.528 46.807 120.818 46.8655 121.13 46.8655Z" fill="#396353"/>
<path d="M126.077 41.6512H126.948V43.1827C127.054 42.9409 127.185 42.7192 127.343 42.5137C127.504 42.3102 127.685 42.1349 127.891 41.9898C128.094 41.8407 128.318 41.7278 128.56 41.6512C128.802 41.5767 129.061 41.5424 129.342 41.5465V42.4895H129.269C128.951 42.4895 128.65 42.5459 128.366 42.6588C128.086 42.7716 127.838 42.9449 127.625 43.1746C127.415 43.4003 127.248 43.6824 127.125 44.021C127.006 44.3555 126.948 44.7383 126.948 45.1736V47.5111H126.077V41.6512Z" fill="#396353"/>
<path d="M133.454 47.6318C133.1 47.6318 132.755 47.5632 132.422 47.4302C132.088 47.2973 131.79 47.0998 131.528 46.8418C131.264 46.5799 131.052 46.2615 130.891 45.8907C130.734 45.5159 130.657 45.0847 130.657 44.6011V44.5769C130.657 44.0993 130.734 43.6721 130.891 43.2953C131.052 42.9205 131.264 42.6021 131.528 42.3442C131.79 42.0822 132.088 41.8807 132.422 41.7397C132.755 41.6006 133.1 41.5301 133.454 41.5301C133.728 41.5301 133.978 41.5664 134.204 41.6349C134.429 41.6994 134.631 41.788 134.808 41.9009C134.99 42.0137 135.155 42.1467 135.3 42.2958C135.449 42.447 135.582 42.6061 135.695 42.7714V39.241H136.573V47.5108H135.695V46.334C135.576 46.5073 135.441 46.6726 135.292 46.8338C135.147 46.991 134.982 47.13 134.8 47.2529C134.623 47.3718 134.421 47.4625 134.196 47.527C133.974 47.5955 133.728 47.6318 133.454 47.6318ZM133.615 46.8499C133.883 46.8499 134.143 46.7975 134.397 46.6887C134.655 46.5819 134.883 46.4288 135.082 46.2293C135.28 46.0257 135.439 45.7859 135.558 45.5119C135.675 45.2378 135.735 44.9295 135.735 44.585V44.5608C135.735 44.2222 135.675 43.9159 135.558 43.6419C135.439 43.3678 135.28 43.1321 135.082 42.9326C134.883 42.7351 134.655 42.582 134.397 42.4732C134.143 42.3664 133.883 42.3119 133.615 42.3119C133.325 42.3119 133.053 42.3643 132.801 42.4651C132.553 42.5679 132.338 42.715 132.156 42.9084C131.973 43.0978 131.826 43.3316 131.713 43.6097C131.604 43.8898 131.552 44.2061 131.552 44.5608V44.585C131.552 44.9356 131.604 45.2499 131.713 45.528C131.826 45.8081 131.975 46.0479 132.165 46.2454C132.352 46.4388 132.57 46.59 132.817 46.6968C133.069 46.7995 133.335 46.8499 133.615 46.8499Z" fill="#396353"/>
<path d="M138.872 39.4099H139.863V40.3691H138.872V39.4099ZM138.928 41.6507H139.799V47.5105H138.928V41.6507Z" fill="#396353"/>
<path d="M142.155 41.6504H143.026V42.6741C143.223 42.3577 143.481 42.0897 143.8 41.8681C144.116 41.6424 144.527 41.5295 145.033 41.5295C145.387 41.5295 145.702 41.586 145.976 41.6988C146.254 41.8117 146.488 41.9729 146.677 42.1824C146.871 42.388 147.018 42.6338 147.12 42.924C147.221 43.2101 147.274 43.5265 147.274 43.8751V47.5103H146.403V44.0847C146.403 43.5426 146.262 43.1134 145.984 42.795C145.704 42.4786 145.303 42.3195 144.783 42.3195C144.535 42.3195 144.303 42.3638 144.09 42.4484C143.874 42.5351 143.687 42.662 143.526 42.8273C143.368 42.9885 143.245 43.1819 143.155 43.4076C143.068 43.6333 143.026 43.8832 143.026 44.1572V47.5103H142.155V41.6504Z" fill="#396353"/>
<path d="M151.207 47.6314C150.937 47.6314 150.671 47.5931 150.409 47.5186C150.151 47.444 149.917 47.3312 149.708 47.18C149.498 47.0249 149.331 46.8335 149.208 46.6078C149.083 46.378 149.022 46.1121 149.022 45.8098V45.7856C149.022 45.4793 149.081 45.2093 149.2 44.9715C149.323 44.7358 149.494 44.5403 149.716 44.3831C149.941 44.2219 150.207 44.101 150.514 44.0204C150.82 43.9358 151.158 43.8914 151.529 43.8914C151.904 43.8914 152.232 43.9156 152.513 43.964C152.791 44.0083 153.063 44.0668 153.327 44.1413V43.9398C153.327 43.4139 153.174 43.0169 152.867 42.7469C152.561 42.4789 152.134 42.3439 151.586 42.3439C151.235 42.3439 150.919 42.3842 150.635 42.4648C150.354 42.5413 150.078 42.6421 149.804 42.7711L149.546 42.0617C149.869 41.9126 150.195 41.7937 150.53 41.7071C150.862 41.6164 151.243 41.5701 151.674 41.5701C152.507 41.5701 153.137 41.7857 153.568 42.2149C153.965 42.6179 154.165 43.1902 154.165 43.9317V47.5105H153.327V46.6239C153.121 46.8939 152.847 47.1297 152.505 47.3332C152.16 47.5307 151.727 47.6314 151.207 47.6314ZM151.384 46.9463C151.652 46.9463 151.904 46.906 152.142 46.8254C152.384 46.7448 152.593 46.636 152.771 46.4949C152.948 46.3559 153.087 46.1886 153.19 45.9952C153.29 45.8017 153.343 45.5901 153.343 45.3584V44.7942C153.121 44.7297 152.869 44.6733 152.585 44.6249C152.305 44.5725 151.983 44.5443 151.618 44.5443C151.064 44.5443 150.639 44.6552 150.344 44.8748C150.054 45.0904 149.909 45.3826 149.909 45.7534V45.7776C149.909 45.9609 149.945 46.1241 150.022 46.2692C150.103 46.4143 150.209 46.5393 150.344 46.64C150.483 46.7367 150.643 46.8133 150.82 46.8657C150.997 46.9201 151.185 46.9463 151.384 46.9463Z" fill="#396353"/>
<path d="M156.354 41.6512H157.225V43.1827C157.332 42.9409 157.463 42.7192 157.62 42.5137C157.781 42.3102 157.963 42.1349 158.168 41.9898C158.372 41.8407 158.595 41.7278 158.837 41.6512C159.079 41.5767 159.339 41.5424 159.619 41.5465V42.4895H159.546C159.228 42.4895 158.928 42.5459 158.644 42.6588C158.364 42.7716 158.116 42.9449 157.902 43.1746C157.693 43.4003 157.525 43.6824 157.402 44.021C157.283 44.3555 157.225 44.7383 157.225 45.1736V47.5111H156.354V41.6512Z" fill="#396353"/>
<path d="M165.657 41.6509H166.584L164.125 47.7042C163.877 48.3047 163.601 48.7298 163.295 48.9777C162.989 49.2296 162.614 49.3565 162.175 49.3565C161.933 49.3565 161.711 49.3324 161.514 49.284C161.32 49.2356 161.127 49.1631 160.933 49.0664L161.224 48.3732C161.369 48.4477 161.51 48.5021 161.651 48.5344C161.79 48.5707 161.953 48.5908 162.143 48.5908C162.404 48.5908 162.628 48.5102 162.812 48.349C162.993 48.1918 163.17 47.9057 163.343 47.4865L160.684 41.6509H161.643L163.779 46.5354L165.657 41.6509Z" fill="#396353"/>
<path d="M0 26.6393L0.705278 27.0363C3.60699 25.926 5.00747 25.8313 5.8538 26.3089C7.47796 27.2217 7.15554 30.5224 11.0023 32.6866C14.6375 34.7299 20.0823 34.6311 23.8525 27.925C27.4051 21.6057 25.2147 17.0758 21.9664 15.2501C19.5301 13.8799 17.0818 14.2688 15.1151 15.2078L15.0788 15.1876L21.8273 3.18584C18.5609 2.46444 15.5141 1.35615 12.6063 0L12.29 0.564222C12.9267 2.73446 13.098 3.341 12.4633 4.47146L0 26.6393ZM10.8472 29.9038C9.25929 29.0111 9.58371 26.0348 10.158 23.9411L13.9887 17.1282C14.9942 16.5801 16.3564 16.1388 17.4869 16.7735C19.5342 17.9241 18.5891 21.3417 16.3846 25.259C14.1821 29.1783 12.3303 30.738 10.8472 29.9038Z" fill="#396353"/>
</svg>
